# xmcd
#
# Track frame offsets:
#	150
#	11671
#	24653
#	37068
#	48646
#	62828
#	77799
#	93068
#	105797
#	128252
#	142359
#	160010
#	176436
#	190414
#	203101
#	220687
#	234676
#	247931
#	258752
#
# Disc length: 3880 seconds
#
# Revision: 0
# Processed by: cddbd v1.5.2PL0 Copyright (c) Steve Scherf et al.
# Submitted via: EasyCDDAExtractor 16.0.6.1
#
DISCID=f90f2613
DTITLE=Lou Ann Barton - The Best!
DYEAR=2014
DGENRE=Blues
TTITLE0=Fabulous Thunderbirds - Rocket In My Pocket
TTITLE1=Fabulous Thunderbirds - Sugar Coated Love
TTITLE2=Fabulous Thunderbirds  - Good Rockin Daddy
TTITLE3=Fabulous Thunderbirds - Every Night Of The Week
TTITLE4=Fabulous Thunderbirds - Maybe
TTITLE5=Lou Ann Barton - You Can Have My Husband
TTITLE6=Lou Ann Barton - You'll Lose A Good Thing
TTITLE7=Lou Ann Barton - Can't Believe You Want to Leave
TTITLE8=Lou Ann Barton - Shake Your Hips
TTITLE9=Lou Ann Barton - Te Ni Nee Ni
TTITLE10=Lou Ann Barton - Shake a Hand
TTITLE11=Marcia Ball, Lou Ann Barton and Angela Strehli - I Idolize You
TTITLE12=Marcia Ball, Lou Ann Barton and Angela Strehli - Bad Things
TTITLE13=Lou Ann Barton - It' Raining
TTITLE14=Lou Ann Barton - I'm Old Enough
TTITLE15=Double Trouble - In the Middle of the Night
TTITLE16=Lou Ann Barton With Jimmie Vaughan and The Tilt-A-Whirl Band - Send Me 
TTITLE16=Some Lovin'
TTITLE17=Lou Ann Barton With Jimmie Vaughan and The Tilt-A-Whirl Band - I'm In T
TTITLE17=he Mood For You
TTITLE18=Lou Ann Barton With Jimmie Vaughan and The Tilt-A-Whirl Band - Shake A 
TTITLE18=Hand (live in the studio)
EXTD=
EXTT0=
EXTT1=
EXTT2=
EXTT3=
EXTT4=
EXTT5=
EXTT6=
EXTT7=
EXTT8=
EXTT9=
EXTT10=
EXTT11=
EXTT12=
EXTT13=
EXTT14=
EXTT15=
EXTT16=
EXTT17=
EXTT18=
PLAYORDER=
